<?xml version="1.0" encoding="utf-8"?>
<!-- Generator: Adobe Illustrator 24.0.2, SVG Export Plug-In . SVG Version: 6.00 Build 0)  -->
<svg version="1.1" id="Layer_1" xmlns="http://www.w3.org/2000/svg" xmlns:xlink="http://www.w3.org/1999/xlink" x="0px" y="0px"
	 viewBox="0 0 1024 1024" style="enable-background:new 0 0 1024 1024;" xml:space="preserve">
<style type="text/css">
	.st0{fill:#3F98D4;stroke:#FFFFFF;stroke-miterlimit:10;}
	.st1{fill:#FFFFFF;}
</style>
<path class="st0" d="M635.14,801.04H389.1c-96.82,0-175.3-78.49-175.3-175.3V395.79c0-96.82,78.49-175.3,175.3-175.3h246.04
	c96.82,0,175.3,78.49,175.3,175.3v229.95C810.44,722.56,731.96,801.04,635.14,801.04z"/>
<g>
	<path class="st1" d="M543.75,417.64c-59.86-40.2-121.16,47.78-62.72,90.01C540.05,548.4,602.38,458.92,543.75,417.64 M496.7,485.16
		c-29.29-20.62,1.87-65.38,31.36-45C557.28,461.28,526.62,505.26,496.7,485.16"/>
	<path class="st1" d="M649.79,469.47c-0.24,6.98-1.01,13.83-2.29,20.5l-43.29-30.17c0.52-84.91-120.23-122.5-167.2-49.68
		c-52.04,69.21,25.03,169.59,104.48,139.66l51.25,35.73L511.26,711.9l-97.78-151.66v-0.03c-22.27-33.98-41.51-56.99-38.82-101.09
		C384.52,278.41,653.57,288.58,649.79,469.47"/>
</g>
</svg>
