<svg xmlns="http://www.w3.org/2000/svg" width="46" height="46" viewBox="0 0 46 46">
  <g id="Car_icon_pro" data-name="Car icon pro" transform="translate(-333 -286)">
    <g id="Group_1443" data-name="Group 1443">
      <rect id="Rectangle" width="46" height="46" rx="8" transform="translate(333 286)" fill="#06152b"/>
      <path id="sedan-02" d="M236.589,439.33a2.542,2.542,0,1,1-2.542,2.542,2.542,2.542,0,0,1,2.542-2.542Zm-2.363-4.507-.17,2.216c.5-.026.979-.049,1.426-.064a.357.357,0,0,0,.317-.171,3.753,3.753,0,0,0,.307-.64c.042-.121.032-.178-.072-.321a8.447,8.447,0,0,0-1.808-1.02Zm-.547,2.236.209-2.39a4.638,4.638,0,0,0-.5-.2,6.563,6.563,0,0,0-1.754-.282l-1.943-.023a.323.323,0,0,0-.271.128,14.454,14.454,0,0,0-.4,2.624c-.055.456-.026.333.48.326,1.247-.015,2.762-.111,4.175-.189ZM240.526,443c.516-.04,1.1-.088,1.562-.167a1.727,1.727,0,0,0,.764-.252c.374-.347.331-1.429.324-1.984,0-.135-.344-.135-.352-.276-.05-.855-.109-1.8-.2-2.681-.112-1.055-2.275-1.094-3.6-1.513-.942-.3-1.719-.938-2.93-1.474a9.5,9.5,0,0,0-3.9-1.13c-2.278,0-5.664-.272-7.785.4a48.44,48.44,0,0,0-5.808,2.721,55.664,55.664,0,0,0-7.281,1.307,1.821,1.821,0,0,0-1.331,1,11.771,11.771,0,0,0-.494,1.241c-.187.015-.194-.032-.253.077a1.271,1.271,0,0,0-.041.456,4.5,4.5,0,0,0,.084,1.371,1.125,1.125,0,0,0,.379.68.872.872,0,0,0,.5.189l.865.028c.516-.1.419-.161.386-.818-.005-.1-.007-.2-.007-.3a3.3,3.3,0,0,1,6.609,0c0,.185,0,.368-.016.545-.078,1.107-.181.916.823.966l13.867-.015c.738-.1.7-.009.619-.936-.015-.182-.02-.369-.02-.56a3.3,3.3,0,0,1,6.61,0c0,.157,0,.312-.016.466-.058.758.154.7.65.658Zm-18.363-5.489a2.683,2.683,0,0,0,.12-.574c.026-.441-.78-.474-1.28-.441a14.907,14.907,0,0,1,3.7-1.935,11.459,11.459,0,0,1,2.534-.365l1.1-.023c.2,0,.224.089.166.245a17.276,17.276,0,0,0-.391,2.412c-.057.366-.143.453-.517.456-1.478.012-5.442.3-5.424.226Zm-7.456,1.822a2.542,2.542,0,1,1-2.542,2.542,2.542,2.542,0,0,1,2.542-2.542Z" transform="translate(129.819 -129.466)" fill="#fff" fill-rule="evenodd"/>
    </g>
  </g>
</svg>
